<svg xmlns="http://www.w3.org/2000/svg" viewBox="0 0 32 32" width="32" height="32">
  <rect width="32" height="32" rx="6" fill="#0a0a0a"/>
  <!-- Three-headed hydra serpent in teal/green -->
  <g transform="translate(4,3) scale(1)">
    <path
      fill="#2dd4a8"
      d="M4.5 7.5 L6.5 4 L8.5 7.5 L6.5 9.5Z
         M5.5 8.5 Q6 12 9 14 L11.5 15.5 L11.5 14 Q9 12.5 7.5 8.5Z
         M11 5 L13 2.5 L15 5 L13 7Z
         M12 5.5 L12 15.5 L14 15.5 L14 5.5Z
         M17.5 7.5 L19.5 4 L21.5 7.5 L19.5 9.5Z
         M18.5 8.5 Q18 12.5 14.5 15.5 L14.5 14 Q17 12 20.5 8.5Z
         M11.5 15 L11.5 22 L14.5 22 L14.5 15Z
         M11.5 22 L10 25 L12 24 L13 25.5 L14 24 L16 25 L14.5 22Z"
    />
    <!-- Subtle eye dots -->
    <circle cx="6.5" cy="6.5" r="0.7" fill="#0a0a0a" opacity=".5"/>
    <circle cx="13" cy="4.2" r="0.7" fill="#0a0a0a" opacity=".5"/>
    <circle cx="19.5" cy="6.5" r="0.7" fill="#0a0a0a" opacity=".5"/>
  </g>
</svg>
