<svg xmlns="http://www.w3.org/2000/svg" viewBox="0 0 100 100" width="100" height="100">
  <rect width="100" height="100" rx="16" fill="#0a0a0a"/>
  <!-- Left snake body (left vertical stroke of H) -->
  <path d="M25 10 C25 10, 20 10, 20 15 L20 42 C20 42, 20 47, 25 47 L45 47 C50 47, 50 53, 45 53 L25 53 C20 53, 20 58, 20 58 L20 85 C20 90, 25 90, 25 90 C30 90, 30 85, 30 85 L30 60 L45 60 C55 60, 58 50, 45 40 L30 40 L30 15 C30 10, 25 10, 25 10Z" fill="#00CC66"/>
  <!-- Right snake body (right vertical stroke of H) -->
  <path d="M75 10 C75 10, 80 10, 80 15 L80 42 C80 42, 80 47, 75 47 L55 47 C50 47, 50 53, 55 53 L75 53 C80 53, 80 58, 80 58 L80 85 C80 90, 75 90, 75 90 C70 90, 70 85, 70 85 L70 60 L55 60 C45 60, 42 50, 55 40 L70 40 L70 15 C70 10, 75 10, 75 10Z" fill="#00CC66"/>
  <!-- Left snake head -->
  <circle cx="25" cy="8" r="4" fill="#00CC66"/>
  <circle cx="23" cy="7" r="1.2" fill="#0a0a0a"/>
  <circle cx="27" cy="7" r="1.2" fill="#0a0a0a"/>
  <!-- Right snake head -->
  <circle cx="75" cy="8" r="4" fill="#00CC66"/>
  <circle cx="73" cy="7" r="1.2" fill="#0a0a0a"/>
  <circle cx="77" cy="7" r="1.2" fill="#0a0a0a"/>
  <!-- Left snake tail -->
  <path d="M25 90 C25 93, 22 96, 19 95 C16 94, 17 90, 20 89" stroke="#00CC66" stroke-width="2.5" fill="none" stroke-linecap="round"/>
  <!-- Right snake tail -->
  <path d="M75 90 C75 93, 78 96, 81 95 C84 94, 83 90, 80 89" stroke="#00CC66" stroke-width="2.5" fill="none" stroke-linecap="round"/>
</svg>
